<?xml version="1.0" encoding="UTF-8" standalone="no"?>
<!-- Created with Inkscape (http://www.inkscape.org/) -->

<svg
   xmlns:dc="http://purl.org/dc/elements/1.1/"
   xmlns:cc="http://creativecommons.org/ns#"
   xmlns:rdf="http://www.w3.org/1999/02/22-rdf-syntax-ns#"
   xmlns:svg="http://www.w3.org/2000/svg"
   xmlns="http://www.w3.org/2000/svg"
   xmlns:sodipodi="http://sodipodi.sourceforge.net/DTD/sodipodi-0.dtd"
   xmlns:inkscape="http://www.inkscape.org/namespaces/inkscape"
   width="152.19943"
   height="152.19942"
   id="svg5564"
   version="1.1"
   inkscape:version="0.48.5 r10040"
   sodipodi:docname="submit-button.svg">
  <defs
     id="defs5566">
    <linearGradient
       id="linearGradient3765">
      <stop
         style="stop-color:#abc837;stop-opacity:1;"
         offset="0"
         id="stop3767" />
      <stop
         id="stop6128"
         offset="0.5"
         style="stop-color:#abc837;stop-opacity:0.49803922;" />
      <stop
         style="stop-color:#abc837;stop-opacity:0;"
         offset="1"
         id="stop3769" />
    </linearGradient>
  </defs>
  <sodipodi:namedview
     id="base"
     pagecolor="#ffffff"
     bordercolor="#ffffff"
     borderopacity="0.0"
     inkscape:pageopacity="0.0"
     inkscape:pageshadow="0"
     inkscape:zoom="0.70223119"
     inkscape:cx="23.215094"
     inkscape:cy="525.85529"
     inkscape:document-units="px"
     inkscape:current-layer="layer1"
     showgrid="false"
     inkscape:window-width="1680"
     inkscape:window-height="975"
     inkscape:window-x="-9"
     inkscape:window-y="-9"
     inkscape:window-maximized="1"
     showguides="true"
     inkscape:guide-bbox="true"
     fit-margin-top="0"
     fit-margin-left="0"
     fit-margin-right="0"
     fit-margin-bottom="0">
    <inkscape:grid
       type="xygrid"
       id="grid5614"
       empspacing="5"
       visible="true"
       enabled="true"
       snapvisiblegridlinesonly="true"
       originx="-1.784906px"
       originy="-0.3247px" />
    <sodipodi:guide
       orientation="0,1"
       position="-1.784906,-0.3247"
       id="guide5616" />
    <sodipodi:guide
       orientation="1,0"
       position="-1.784906,-0.3247"
       id="guide5618" />
  </sodipodi:namedview>
  <metadata
     id="metadata5569">
    <rdf:RDF>
      <cc:Work
         rdf:about="">
        <dc:format>image/svg+xml</dc:format>
        <dc:type
           rdf:resource="http://purl.org/dc/dcmitype/StillImage" />
      </cc:Work>
    </rdf:RDF>
  </metadata>
  <g
     inkscape:label="Layer 1"
     inkscape:groupmode="layer"
     id="layer1"
     transform="translate(-1.784906,-899.83808)">
    <path
       inkscape:connector-curvature="0"
       style="fill:#cdde00;fill-opacity:1;stroke:#89a02c;stroke-width:13;stroke-linecap:round;stroke-linejoin:bevel;stroke-miterlimit:4;stroke-opacity:1;stroke-dasharray:none;display:inline"
       d="m 147.48434,975.93781 c 0,38.43889 -31.16085,69.59969 -69.599713,69.59969 -38.438869,0 -69.599721,-31.1608 -69.599721,-69.59969 0,-38.43887 31.160852,-69.59973 69.599721,-69.59973 38.438863,0 69.599713,31.16086 69.599713,69.59973 z"
       id="path2989-3" />
    <path
       style="fill:#cdde87;fill-opacity:1;stroke:#89a02c;stroke-width:0;stroke-linecap:round;stroke-linejoin:bevel;stroke-miterlimit:4;stroke-opacity:1;stroke-dasharray:none;display:inline"
       d="m 147.57966,975.94511 c 0,38.43889 -31.16085,69.59969 -69.599714,69.59969 -38.438869,0 -69.599723,-31.1608 -69.599723,-69.59969 0,-38.43886 31.160854,-69.59972 69.599723,-69.59972 38.438864,0 69.599714,31.16086 69.599714,69.59972 z"
       id="path2989"
       inkscape:connector-curvature="0" />
    <path
       style="opacity:0.41569286;fill:#668000;fill-opacity:1;stroke:#000000;stroke-width:0.09975629;stroke-linecap:square;stroke-linejoin:miter;stroke-miterlimit:4;stroke-opacity:1;stroke-dasharray:none;stroke-dashoffset:0;display:inline"
       d="m 69.078126,1045.1503 c -23.461011,-3.2999 -43.544719,-17.9234 -53.711926,-39.1092 -1.614625,-3.3645 -3.893154,-9.36954 -3.632779,-9.5742 0.981533,-0.77147 26.478252,-17.83743 26.649312,-17.83743 0.131054,0 -1.048083,1.29974 -2.620309,2.88831 l -2.858595,2.88828 19.600571,19.71444 19.600565,19.7144 29.727365,-29.8958 c 16.35006,-16.44268 29.71714,-29.7518 29.70465,-29.57584 -0.0445,0.62736 -58.527039,81.11274 -58.974396,81.16244 -0.250805,0.028 -1.818808,-0.1411 -3.484458,-0.3754 z"
       id="path5521"
       inkscape:connector-curvature="0" />
    <rect
       style="fill:#abc837;fill-opacity:1;stroke:#abc837;stroke-width:0.68818277;stroke-opacity:1;display:inline"
       id="rect2991"
       width="11.027206"
       height="55.261963"
       x="-672.65759"
       y="719.55334"
       transform="matrix(0.70713488,-0.70707868,0.70707866,0.7071349,0,0)" />
    <rect
       style="fill:#abc837;fill-opacity:1;stroke:#abc837;stroke-width:0.67181027;stroke-opacity:1;display:inline"
       id="rect2993"
       width="10.896089"
       height="80.118294"
       x="764.41626"
       y="583.93152"
       transform="matrix(0.70653571,0.70767739,-0.70767739,0.70653571,0,0)" />
  </g>
</svg>
